<?xml version="1.0" encoding="iso-8859-1"?>
<!-- Uploaded to: SVG Repo, www.svgrepo.com, Generator: SVG Repo Mixer Tools -->
<!DOCTYPE svg PUBLIC "-//W3C//DTD SVG 1.1//EN" "http://www.w3.org/Graphics/SVG/1.1/DTD/svg11.dtd">
<svg fill="#000000" height="800px" width="800px" version="1.1" id="Capa_1" xmlns="http://www.w3.org/2000/svg" xmlns:xlink="http://www.w3.org/1999/xlink" 
	 viewBox="0 0 441.133 441.133" xml:space="preserve">
<g>
	<path d="M259.161,70.727V47.574h4.027c3.313,0,6-2.687,6-6V28.119C269.189,12.614,256.574,0,241.07,0h-41.007
		c-15.505,0-28.119,12.614-28.119,28.119v13.456c0,3.313,2.687,6,6,6h4.03v23.153c-27.492,5.785-52.779,17.62-74.404,34.043
		L93.81,91.01c-4.824-4.822-12.673-4.822-17.497,0l-16.997,16.997c-2.337,2.337-3.624,5.444-3.624,8.749
		c0,3.305,1.287,6.412,3.624,8.749l13.54,13.54c-24.738,31.737-39.497,71.616-39.497,114.88
		c0,103.227,83.981,187.208,187.208,187.208s187.207-83.981,187.207-187.208C407.774,163.926,343.933,88.565,259.161,70.727z
		 M183.944,28.119c0-8.888,7.231-16.119,16.119-16.119h41.007c8.888,0,16.119,7.231,16.119,16.119v7.456h-73.245V28.119z
		 M193.974,48.011h53.188v20.604c-8.69-1.241-17.567-1.898-26.595-1.898c-9.027,0-17.903,0.656-26.593,1.897V48.011z M67.801,117.02
		c-0.03-0.03-0.109-0.109-0.109-0.264c0-0.154,0.08-0.233,0.109-0.263l16.997-16.997c0.146-0.146,0.383-0.146,0.527,0l12.867,12.867
		c-6.253,5.412-12.135,11.24-17.625,17.423L67.801,117.02z M220.567,429.133c-96.61,0-175.208-78.598-175.208-175.208
		S123.957,78.718,220.567,78.718c96.609,0,175.207,78.598,175.207,175.208S317.176,429.133,220.567,429.133z"/>
	<path d="M220.567,107.94c-80.497,0-145.985,65.489-145.985,145.985s65.489,145.985,145.985,145.985
		c80.497,0,145.985-65.489,145.985-145.985S301.064,107.94,220.567,107.94z M220.567,387.911
		c-73.88,0-133.985-60.105-133.985-133.985S146.687,119.94,220.567,119.94s133.985,60.105,133.985,133.985
		S294.447,387.911,220.567,387.911z"/>
	<path d="M226.445,176.063c-0.571-2.792-3.028-4.797-5.878-4.797s-5.307,2.005-5.878,4.797c0,0-15.812,75.082-15.812,77.862
		c0,11.959,9.73,21.689,21.689,21.689c11.959,0,21.688-9.729,21.688-21.689C242.255,251.145,226.445,176.063,226.445,176.063z
		 M220.567,207.191l5.258,25.693c-1.685-0.421-3.445-0.648-5.258-0.648c-1.813,0-3.574,0.227-5.259,0.648L220.567,207.191z
		 M220.567,263.614c-5.343,0-9.689-4.347-9.689-9.689s4.347-9.689,9.689-9.689c5.342,0,9.688,4.347,9.688,9.689
		S225.908,263.614,220.567,263.614z"/>
	<path d="M220.566,346.847c-3.313,0-6,2.687-6,6v23.235c0,3.313,2.687,6,6,6c3.314,0,6-2.687,6-6v-23.235
		C226.566,349.534,223.88,346.847,220.566,346.847z"/>
	<path d="M220.566,161.002c3.314,0,6-2.687,6-6v-23.235c0-3.313-2.686-6-6-6c-3.313,0-6,2.687-6,6v23.235
		C214.566,158.315,217.253,161.002,220.566,161.002z"/>
	<path d="M146.378,319.632l-16.43,16.43c-2.343,2.343-2.343,6.142,0,8.485c1.172,1.171,2.707,1.757,4.243,1.757
		s3.071-0.586,4.243-1.757l16.43-16.43c2.343-2.343,2.343-6.142,0-8.485C152.519,317.289,148.72,317.289,146.378,319.632z"/>
	<path d="M290.521,189.975c1.592,0,3.118-0.633,4.244-1.759l16.421-16.43c2.342-2.344,2.341-6.143-0.003-8.485
		c-2.343-2.342-6.143-2.342-8.485,0.002l-16.254,16.264c-1.186,1.096-1.928,2.665-1.928,4.408
		C284.516,187.288,287.207,189.975,290.521,189.975z"/>
	<path d="M121.639,247.929H98.404c-3.313,0-6,2.687-6,6s2.687,6,6,6h23.235c3.313,0,6-2.687,6-6S124.952,247.929,121.639,247.929z"
		/>
	<path d="M342.72,247.92h-23.227c-3.313,0-6,2.687-6,6s2.687,6,6,6h23.227c3.313,0,6-2.687,6-6S346.033,247.92,342.72,247.92z"/>
	<path d="M146.368,188.216c1.125,1.126,2.652,1.759,4.244,1.759h0.009c3.313,0,5.996-2.687,5.996-6c0-1.705-0.711-3.243-1.854-4.335
		l-16.328-16.336c-2.341-2.344-6.142-2.345-8.485-0.002c-2.344,2.342-2.345,6.141-0.002,8.485L146.368,188.216z"/>
	<path d="M294.755,319.632c-2.343-2.343-6.143-2.344-8.485,0c-2.344,2.343-2.344,6.142-0.001,8.485l16.43,16.43
		c1.172,1.172,2.707,1.757,4.243,1.757c1.535,0,3.071-0.586,4.242-1.757c2.344-2.343,2.344-6.142,0.001-8.485L294.755,319.632z"/>
</g>
</svg>